# xmcd CD database file
#
# Track frame offsets:
#	150
#	15963
#	35096
#	59294
#	82430
#	116769
#	132047
#	148618
#	167297
#	229799
#
# Disc length: 3411 seconds
#
# Revision: 0
# Processed by: cddbd v1.5.1PL0 Copyright (c) Steve Scherf et al.
# Submitted via: CDex 1.51
#
DISCID=800d510a
DTITLE=Ferenczy György és a Herfli Davidson and Dohnányi Ernõ Szimfónikus Zenekar - Vigadó'95(Szimfónikusok nyomják a bluest)
DYEAR=1995
DGENRE=Blues
TTITLE0=01 Ferenczy György and Dohnányi Zenekar - Bevezetõ
TTITLE1=02 Ferenczy György and Dohnányi Zenekar - Pályaudvar
TTITLE2=03 Ferenczy György and Dohnányi Zenekar - Száguldj velem
TTITLE3=04 Ferenczy György and Dohnányi Zenekar - Hogy érzem magam
TTITLE4=05 Ferenczy György and Dohnányi Zenekar - Valami baj van
TTITLE5=06 Ferenczy György and Dohnányi Zenekar - Erzsébeti legényes
TTITLE6=07 Ferenczy György and Dohnányi Zenekar - Hajnal
TTITLE7=08 Ferenczy György and Dohnányi Zenekar - Soul
TTITLE8=09 Ferenczy György and Dohnányi Zenekar - Got My Mojo Working
TTITLE9=10 Ferenczy György and Dohnányi Zenekar - Georgia On My Mind
EXTD=YEAR: 1995
EXTT0=
EXTT1=
EXTT2=
EXTT3=
EXTT4=
EXTT5=
EXTT6=
EXTT7=
EXTT8=
EXTT9=
PLAYORDER=
